# AST/ASF file generated using VICON BodyLanguage
# -----------------------------------------------
:version 1.10
:name VICON
:units
  mass 1.0
  length 0.45
  angle deg
:documentation
   .ast/.asf automatically generated from VICON data using
   VICON BodyBuilder and BodyLanguage model FoxedUp or BRILLIANT.MOD
:root
   order TX TY TZ RX RY RZ
   axis XYZ
   position 0 0 0  
   orientation 0 0 0 
:bonedata
  begin
     id 1 
     name lhipjoint
     direction 0.440178 -0.822639 0.359871 
     length 2.53113 
     axis 0 0 0  XYZ
  end
  begin
     id 2 
     name lfemur
     direction 0.34202 -0.939693 0  
     length 7.88132  
     axis 0 0 20  XYZ
    dof rx ry rz
    limits (-160.0 20.0)
           (-70.0 70.0)
           (-60.0 70.0)
  end
  begin
     id 3 
     name ltibia
     direction 0.34202 -0.939693 0   
     length 8.43783   
     axis 0 0 20   XYZ
    dof rx
    limits (-10.0 170.0)
  end
  begin
     id 4 
     name lfoot
     direction 0.0886351 -0.243523 0.965837   
     length 2.63414   
     axis -90 7.62852e-016 20   XYZ
    dof rx rz
    limits (-45.0 90.0)
           (-70.0 20.0)
  end
  begin
     id 5 
     name ltoes
     direction 1.53703e-011 -4.21717e-011 1   
     length 1.31427   
     axis -90 7.62852e-016 20   XYZ
    dof rx
    limits (-90.0 20.0)
  end
  begin
     id 6 
     name rhipjoint
     direction -0.399779 -0.839773 0.367367   
     length 2.47948  
     axis 0 0 0  XYZ 
  end
  begin
     id 7 
     name rfemur
     direction -0.34202 -0.939693 0   
     length 7.74806   
     axis 0 0 -20   XYZ
    dof rx ry rz
    limits (-160.0 20.0)
           (-70.0 70.0)
           (-70.0 60.0)
  end
  begin
     id 8 
     name rtibia
     direction -0.34202 -0.939693 0   
     length 8.74432   
     axis 0 0 -20   XYZ
    dof rx
    limits (-10.0 170.0)
 end
 begin
     id 9 
     name rfoot
     direction -0.108514 -0.298139 0.948334   
     length 2.66102  
     axis -90 -7.62852e-016 -20   XYZ
    dof rx rz
    limits (-45.0 90.0)
           (-20.0 70.0)
  end
  begin
     id 10 
     name rtoes
     direction -1.53392e-011 -4.22077e-011 1   
     length 1.31983   
     axis -90 -7.62852e-016 -20   XYZ
    dof rx
    limits (-90.0 20.0)
  end
  begin
     id 11 
     name lowerback
     direction 0.0113257 0.999866 0.0118602   
     length 2.58694   
     axis 0 0 0   XYZ
    dof rx ry rz
    limits (-20.0 45.0)
           (-30.0 30.0)
           (-30.0 30.0)
  end
  begin
     id 12 
     name upperback
     direction -0.0164747 0.995193 -0.0965375   
     length 2.52368   
     axis 0 0 0   XYZ
    dof rx ry rz
    limits (-20.0 45.0)
           (-30.0 30.0)
           (-30.0 30.0)
  end
  begin
     id 13 
     name thorax
     direction -0.0194301 0.99433 -0.104552   
     length 2.56099   
     axis 0 0 0   XYZ
    dof rx ry rz
    limits (-20.0 45.0)
           (-30.0 30.0)
           (-30.0 30.0)
  end
  begin
     id 14 
     name lowerneck
     direction 0.0148543 0.995587 -0.092657   
     length 1.71582   
     axis 0 0 0   XYZ
    dof rx ry rz
    limits (-20.0 45.0)
           (-30.0 30.0)
           (-30.0 30.0)
  end
  begin
     id 15 
     name upperneck
     direction -0.0135467 0.993656 -0.111639   
     length 1.68937   
     axis 0 0 0   XYZ
    dof rx ry rz
    limits (-20.0 45.0)
           (-30.0 30.0)
           (-30.0 30.0)
  end
  begin
     id 16
     name head
     direction -0.00615349 0.999547 -0.029448  
     length 1.7462  
     axis 0 0 0   XYZ
    dof rx ry rz
    limits (-20.0 45.0)
           (-30.0 30.0)
           (-30.0 30.0)
  end
  begin
     id 17 
     name lclavicle
     direction 0.988267 0.149885 0.0293713  
     length 4.47222  
     axis 0 0 0   XYZ
    dof ry rz
    limits (-20.0 10.0)
           (0.0 20.0)
  end
  begin
     id 18 
     name lhumerus
     direction 1 -4.48986e-011 -1.14833e-027   
     length 5.37148   
     axis 180 -30 -90   XYZ
    dof rx ry rz
    limits (-60.0 90.0)
           (-90.0 90.0)
           (-90.0 90.0)
  end
  begin
     id 19
     name lradius
     direction 0.999998 0.00170963 -0.000987055   
     length 3.94212   
     axis 180 -30 -90   XYZ
    dof rx
    limits (-10.0 170.0)
  end
  begin
     id 20
     name lwrist
     direction 0.999998 7.53149e-005 -0.00194706   
     length 1.97106   
     axis 4.65056e-015 90 90   XYZ
    dof ry
    limits (-180.0 0.0)
 end
  begin
     id 21 
     name lhand
     direction 1 -4.48973e-011 -1.31746e-026   
     length 1.17917   
     axis 8.4065e-015 90 90   XYZ
    dof rx rz
    limits (-90.0 90.0)
           (-45.0 45.0)
  end
  begin
     id 22 
     name lfingers
     direction 1 -4.49107e-011 -2.63492e-026   
     length 0.950679   
     axis 1.6813e-014 90 90   XYZ
    dof rx
    limits (0.0 90.0)
  end
  begin
     id 23
     name lthumb
     direction 0.707107 -6.35048e-011 0.707107   
     length 1.36499   
     axis -90 45 2.85299e-015   XYZ
    dof rx rz
    limits (-45.0 45.0)
           (-45.0 45.0)
  end
  begin
     id 24 
     name rclavicle
     direction -0.996699 0.0642895 -0.0495725   
     length 4.62611  
     axis 0 0 0   XYZ 
    dof ry rz
    limits (-10.0 20.0)
           (-20.0 0.0)
  end
  begin
     id 25 
     name rhumerus
     direction -1 -4.48919e-011 -2.41059e-027  
     length 5.4981   
     axis 180 30 90   XYZ
    dof rx ry rz
    limits (-90.0 60.0)
           (-90.0 90.0)
           (-90.0 90.0)
  end
  begin
     id 26 
     name rradius
     direction -0.999999 0.00118101 -0.000681858   
     length 3.48381   
     axis 180 30 90   XYZ
    dof rx
    limits (-10.0 170.0)
  end
  begin
     id 27 
     name rwrist
     direction -0.999999 0.000321823 -0.00132288   
     length 1.7419   
     axis 4.65056e-015 -90 -90   XYZ
    dof ry
    limits (-180.0 0.0)
  end
  begin
     id 28
     name rhand
     direction -1 -4.49022e-011 -1.31746e-026   
     length 1.34932   
     axis 8.4065e-015 -90 -90   XYZ
    dof rx rz
    limits (-90.0 90.0)
           (-45.0 45.0)
  end
  begin
     id 29
     name rfingers
     direction -1 -4.49178e-011 -2.63492e-026   
     length 1.08785   
     axis 1.6813e-014 -90 -90   XYZ
    dof rx
    limits (0.0 90.0)
  end
  begin
     id 30
     name rthumb
     direction -0.707107 -6.34713e-011 0.707107   
     length 1.56195   
     axis -90 -45 -2.85299e-015   XYZ
    dof rx rz
    limits (-45.0 45.0)
           (-45.0 45.0)
  end
:hierarchy
  begin
    root lhipjoint rhipjoint lowerback
    lhipjoint lfemur
    lfemur ltibia
    ltibia lfoot
    lfoot ltoes
    rhipjoint rfemur
    rfemur rtibia
    rtibia rfoot
    rfoot rtoes
    lowerback upperback
    upperback thorax
    thorax lowerneck lclavicle rclavicle
    lowerneck upperneck
    upperneck head
    lclavicle lhumerus
    lhumerus lradius
    lradius lwrist
    lwrist lhand lthumb
    lhand lfingers
    rclavicle rhumerus
    rhumerus rradius
    rradius rwrist
    rwrist rhand rthumb
    rhand rfingers
  end

#!OML:ASF X:\für Bonn\!DataBase\2005_08_10_Bjorn_Final\c3d\bjorn.ASF
:FULLY-SPECIFIED
:DEGREES
1
root 21.8202 19.0777 0.10312 86.661 -94.2324 -94.152
lowerback 4.21795 2.72101 -7.10297
upperback 12.9028 3.3638 -3.77603
thorax 11.3602 0.834903 -0.039695
lowerneck -2.27776 -0.162299 2.20484
upperneck 26.7879 -1.09046 -1.49196
head 8.68155 -0.785702 -1.0255
rclavicle 3.18055e-015 3.97569e-014
rhumerus -26.4942 -16.0774 -86.7538
rradius 26.8085
rwrist -1.6892
rhand -9.59107 8.50735
rfingers 7.12502
rthumb 16.3774 -20.8212
lclavicle 3.18055e-015 3.97569e-014
lhumerus -21.5719 0.268117 84.0262
lradius 21.5884
lwrist -31.1973
lhand -13.4563 -6.13749
lfingers 7.12502
lthumb 12.6533 23.4592
rfemur 3.59741 -3.21878 8.14401
rtibia 53.1837
rfoot 5.22237 16.2726
rtoes -15.6817
lfemur -11.3086 10.3656 -23.888
ltibia 29.7675
lfoot -4.56036 -7.04484
ltoes -4.63143
2
root 21.7141 19.083 0.120895 86.1386 -94.3008 -93.6947
lowerback 4.41548 2.66154 -7.24211
upperback 12.9697 3.2576 -3.8065
thorax 11.3235 0.765146 -0.00989138
lowerneck -2.20965 -0.0995638 2.27233
upperneck 26.7397 -0.977245 -1.63587
head 8.65299 -0.740841 -1.07616
rclavicle 4.65156e-014 2.54444e-014
rhumerus -26.7332 -16.1726 -86.6786
rradius 26.6269
rwrist -1.90069
rhand -9.53997 8.4295
rfingers 7.12502
rthumb 16.4266 -20.895
lclavicle 4.65156e-014 2.54444e-014
lhumerus -21.1348 -0.929373 84.0318
lradius 22.1759
lwrist -30.1267
lhand -13.3842 -6.105
lfingers 7.12502
lthumb 12.7228 23.4874
rfemur 2.38967 -3.40149 7.86239
rtibia 54.682
rfoot 4.5859 15.4397
rtoes -15.8501
lfemur -10.8309 10.4536 -23.9475
ltibia 29.7006
lfoot -4.86515 -7.09161
ltoes -4.7927
3
root 21.609 19.088 0.138051 85.7378 -94.3509 -93.3514
lowerback 4.59828 2.58708 -7.39381
upperback 13.0476 3.13067 -3.79607
thorax 11.3071 0.680596 0.0708948
lowerneck -2.14404 -0.0200842 2.2534
upperneck 26.6592 -0.831013 -1.77172
head 8.61486 -0.687269 -1.10617
rclavicle -7.55382e-015 3.33958e-014
rhumerus -26.9157 -16.174 -86.5669
rradius 26.444
rwrist -2.10771
rhand -9.57373 8.38855
rfingers 7.12502
rthumb 16.3941 -20.9386
lclavicle -7.55382e-015 3.33958e-014
lhumerus -20.6977 -1.99632 84.0348
lradius 22.8051
lwrist -29.136
lhand -13.3398 -6.11728
lfingers 7.12502
lthumb 12.7656 23.4725
rfemur 1.19541 -3.56253 7.63596
rtibia 56.057
rfoot 3.96868 14.5072
rtoes -15.835
lfemur -10.3599 10.5066 -23.9888
ltibia 29.6288
lfoot -5.16705 -7.13102
ltoes -4.91353
4
root 21.5061 19.0938 0.155003 85.7275 -94.3624 -93.4063
lowerback 4.80463 2.48596 -7.51698
upperback 13.1327 2.96295 -3.76589
thorax 11.2881 0.577511 0.155553
lowerneck -2.07837 0.0750288 2.26118
upperneck 26.5432 -0.653548 -1.95312
head 8.56496 -0.62001 -1.15333
rclavicle -2.66371e-014 3.4191e-014
rhumerus -27.0636 -16.164 -86.4625
rradius 26.2555
rwrist -2.2765
rhand -9.64212 8.41292
rfingers 7.12502
rthumb 16.3283 -20.9197
lclavicle -2.66371e-014 3.4191e-014
lhumerus -20.2399 -2.93022 83.9994
lradius 23.4399
lwrist -28.1384
lhand -13.3105 -6.17227
lfingers 7.12502
lthumb 12.7939 23.4157
rfemur 0.0394287 -3.74729 7.47541
rtibia 57.2996
rfoot 3.36024 13.5443
rtoes -15.6419
lfemur -9.89165 10.5623 -23.9803
ltibia 29.5604
lfoot -5.42739 -7.20694
ltoes -4.78312
5
root 21.4048 19.1015 0.171732 85.7035 -94.3628 -93.4194
lowerback 5.00685 2.38817 -7.61312
upperback 13.204 2.80042 -3.74615
thorax 11.2572 0.481446 0.215547
lowerneck -1.99409 0.178408 2.25472
upperneck 26.427 -0.481049 -2.06258
head 8.51249 -0.549755 -1.17408
rclavicle -5.56597e-015 3.10104e-014
rhumerus -27.1819 -16.255 -86.3531
rradius 25.9907
rwrist -2.3747
rhand -9.68382 8.4455
rfingers 7.12502
rthumb 16.2881 -20.8904
lclavicle -5.56597e-015 3.10104e-014
lhumerus -19.7849 -3.82962 83.9028
lradius 24.0717
lwrist -27.1645
lhand -13.4442 -6.25358
lfingers 7.12502
lthumb 12.665 23.3424
rfemur -1.12373 -3.9531 7.34107
rtibia 58.4032
rfoot 2.79869 12.5649
rtoes -15.0589
lfemur -9.46006 10.615 -23.9705
ltibia 29.4969
lfoot -5.72032 -7.26744
ltoes -4.8592
6
root 21.3056 19.1065 0.187981 85.5726 -94.3499 -93.3157
lowerback 5.20028 2.28967 -7.71992
upperback 13.2852 2.63613 -3.69636
thorax 11.2425 0.380644 0.314508
lowerneck -1.93941 0.283264 2.21591
upperneck 26.3054 -0.297733 -2.19271
head 8.46397 -0.478644 -1.19555
rclavicle -9.54166e-015 -2.22639e-014
rhumerus -27.2764 -16.3214 -86.1999
rradius 25.7434
rwrist -2.48067
rhand -9.70798 8.44212
rfingers 7.12502
rthumb 16.2648 -20.8957
lclavicle -9.54166e-015 -2.22639e-014
lhumerus -19.3057 -4.57632 83.7908
lradius 24.7261
lwrist -26.358
lhand -13.5477 -6.32344
lfingers 7.12502
lthumb 12.5652 23.2787
rfemur -2.25953 -4.15792 7.23612
rtibia 59.3352
rfoot 2.28696 11.6034
rtoes -13.971
lfemur -9.01398 10.657 -23.9487
ltibia 29.3617
lfoot -5.95621 -7.29972
ltoes -4.78438
7
root 21.2089 19.1099 0.204519 85.8026 -94.3191 -93.5657
lowerback 5.39776 2.18782 -7.78277
upperback 13.3797 2.46637 -3.65242
thorax 11.2439 0.280867 0.383001
lowerneck -1.91725 0.377212 2.21529
upperneck 26.177 -0.130109 -2.33383
head 8.41893 -0.411405 -1.22854
rclavicle 1.03368e-014 2.38542e-015
rhumerus -27.3183 -16.444 -86.071
rradius 25.4907
rwrist -2.59255
rhand -9.74358 8.44064
rfingers 7.12502
rthumb 16.2306 -20.9
lclavicle 1.03368e-014 2.38542e-015
lhumerus -18.7913 -5.25972 83.6152
lradius 25.3566
lwrist -25.7084
lhand -13.8072 -6.46905
lfingers 7.12502
lthumb 12.315 23.1483
rfemur -3.37494 -4.44079 7.1561
rtibia 60.123
rfoot 1.73646 10.7425
rtoes -13.1213
lfemur -8.61135 10.7254 -23.9068
ltibia 29.2746
lfoot -6.19303 -7.38635
ltoes -4.76273
8
root 21.1116 19.1287 0.220811 85.8646 -94.2713 -93.6471
lowerback 5.60569 2.08334 -7.83344
upperback 13.4714 2.29121 -3.60881
thorax 11.2372 0.179836 0.444826
lowerneck -1.86996 0.475854 2.19304
upperneck 26.0481 0.0368798 -2.44095
head 8.36965 -0.343594 -1.24638
rclavicle -7.15625e-015 3.73715e-014
rhumerus -27.3718 -16.5358 -85.9387
rradius 25.2504
rwrist -2.68064
rhand -9.78602 8.41708
rfingers 7.12502
rthumb 16.1897 -20.9268
lclavicle -7.15625e-015 3.73715e-014
lhumerus -18.2692 -5.82213 83.3903
lradius 25.9563
lwrist -25.1817
lhand -14.1249 -6.59625
lfingers 7.12502
lthumb 12.0086 23.0392
rfemur -4.40005 -4.69631 7.14345
rtibia 60.6751
rfoot 1.12244 9.99041
rtoes -11.9694
lfemur -8.19129 10.775 -23.8445
ltibia 29.2032
lfoot -6.46713 -7.44923
ltoes -4.66839
9
root 21.0205 19.1271 0.236159 86.331 -94.2041 -94.1138
lowerback 5.81823 1.97948 -7.86536
upperback 13.572 2.11499 -3.54084
thorax 11.2382 0.0782023 0.523199
lowerneck -1.88506 0.558744 2.16527
upperneck 25.9443 0.18342 -2.55189
head 8.34002 -0.285793 -1.26659
rclavicle 1.35174e-014 5.725e-014
rhumerus -27.3982 -16.6558 -85.7769
rradius 25.05
rwrist -2.7805
rhand -9.82347 8.38759
rfingers 7.12502
rthumb 16.1536 -20.9593
lclavicle 1.35174e-014 5.725e-014
lhumerus -17.6993 -6.1389 83.1556
lradius 26.5134
lwrist -24.9974
lhand -14.5816 -6.77691
lfingers 7.12502
lthumb 11.5682 22.8838
rfemur -5.45793 -5.00209 7.1599
rtibia 61.1294
rfoot 0.494725 9.38966
rtoes -10.3507
lfemur -7.88154 10.8061 -23.7664
ltibia 29.2174
lfoot -6.7384 -7.52934
ltoes -4.7604
10
root 20.9299 19.1243 0.250707 86.5339 -94.1602 -94.3171
lowerback 6.01864 1.88961 -7.91283
upperback 13.6811 1.95901 -3.48608
thorax 11.2568 -0.015708 0.596734
lowerneck -1.87475 0.634754 2.14094
upperneck 25.8181 0.311233 -2.62206
head 8.29789 -0.232251 -1.2747
rclavicle 7.15625e-015 4.29375e-014
rhumerus -27.4352 -16.8138 -85.6229
rradius 24.8903
rwrist -2.84201
rhand -9.88877 8.38665
rfingers 7.12502
rthumb 16.0908 -20.9653
lclavicle 7.15625e-015 4.29375e-014
lhumerus -17.1242 -6.484 82.8843
lradius 27.1278
lwrist -24.8066
lhand -14.9751 -6.80109
lfingers 7.12502
lthumb 11.1887 22.8806
rfemur -6.47619 -5.27429 7.18556
rtibia 61.4169
rfoot -0.134857 8.9552
rtoes -9.04473
lfemur -7.58633 10.8629 -23.711
ltibia 29.2501
lfoot -7.02544 -7.60842
ltoes -4.65962
